<svg width="606" height="1114" viewBox="0 0 606 1114" fill="none" xmlns="http://www.w3.org/2000/svg">
<path fill-rule="evenodd" clip-rule="evenodd" d="M424.793 1076.32C427.016 1067.33 423.745 1060.16 414.354 1054.87C413.546 1052.73 395.395 1045.8 380.973 1035.62C368.016 1026.48 358.617 1013.93 358.223 1013.23C358.223 1013.23 355.31 1006.46 354.978 1003.4C353.385 988.724 354.306 979.106 353.322 974.543C359.95 973.673 376.242 543.264 373.607 528.999C377.923 528.051 382.499 527.051 386.613 524.617C386.941 524.533 386.402 523.579 386.417 523.4C396.739 503.135 380.905 434.23 370.982 415.153C378.862 414.948 389.242 413.876 394.121 407.295C396.431 406.535 397.887 405.211 399.008 403.083C400.299 401.056 401.497 398.929 402.575 396.749C407.826 385.841 411.065 373.728 409.314 361.71C409.648 361.604 411.367 361.593 411.452 361.112C411.621 358.157 411.078 355.554 410.191 352.763C401.174 321.331 390.32 290.385 375.973 260.793C368.784 244.955 353.909 239.175 338.497 233.229C331.083 230.316 323.665 226.954 315.927 225.045C315.829 224.504 316.291 222.857 315.277 222.991C314.025 223.252 314.272 225.266 313.807 226.396C295.914 211.748 307.261 204.2 296.472 196.177C285.308 190.382 271.693 190.146 259.384 191.401C254.843 191.532 251.21 193.579 250.139 198.15C246.235 207.609 237.089 214.57 227.111 216.704C226.286 215.236 224.019 211.027 222.75 212.356C208.339 212.848 186.489 218.138 173.001 222.096C159.46 225.555 145.762 231.869 142.219 246.583C135.791 272.802 146.018 380.557 162.792 401.308L163.337 401.317C166.311 404.361 170.353 406.592 174.933 408.087C174.83 417.788 171.773 427.26 170.251 436.748C166.825 453.955 164.192 471.18 160.376 488.479C160.359 490.406 153.098 516.78 160.257 511.491C161.734 512.218 163.544 513.01 165.135 513.689C157.53 531.022 154.05 558.99 154.589 580.403C154.724 593.155 154.197 604.326 151.337 617.385C130.176 728.03 111.518 975.51 111.08 978.819C110.677 981.981 113.354 999.145 111.08 1003.67C109.061 1007.69 100.452 1005.32 98.8046 1006.87C94.5273 1013.84 96.4856 1018.27 92.9773 1025.23C91.178 1026.84 87.1552 1030.36 85.8354 1032.84C83.1637 1035.41 38.9161 1064.45 40.7095 1068.85C40.7095 1068.85 40.5077 1070.97 40.4399 1071.43C36.6675 1093.38 42.9492 1093.2 63.2731 1096.43C92.9625 1101.66 115.151 1091.59 140.243 1078.12C148.581 1072.5 160.432 1061.76 156.574 1049.05C156.468 1048.27 154.18 1034.9 153.272 1028.1C153.272 1028.1 155.731 1022.67 146.214 1023.34C147.779 1021.63 151.218 999.368 150.045 996.424C149.3 988.84 150.456 981.956 150.09 974.15C154.077 974.446 224.07 642.591 267.972 621.969C268.244 624.174 267.717 628.277 270.643 628.688C284.222 734.636 316.871 971.984 318.37 972.4C316.12 984.498 316.189 1012.55 316.147 1024.56C315.802 1024.88 314.222 1026.29 313.967 1026.63C313.914 1026.54 312.885 1027.57 312.832 1027.6L312.693 1027.28C308.069 1037.71 301.328 1048.45 307.286 1058.67C302.864 1058.35 303.574 1066.86 303.376 1070.77C305.895 1078.43 377.484 1099.11 393.481 1100.09C398.737 1101.01 423.216 1093.22 427.927 1092.1C434.031 1090.96 428.043 1079.61 424.793 1076.32Z" fill="white"/>
<path fill-rule="evenodd" clip-rule="evenodd" d="M253.117 195.575C255.435 195.503 255.877 198.419 254.293 199.628L254.228 199.676C252.877 200.634 252.244 201.49 251.511 203.019C247.938 212.476 237.862 217.9 228.007 215.891C231.43 222.277 233.729 228.457 237.155 234.735C252.933 267.237 304.747 277.811 310.944 233.215C301.45 231.38 295.823 210.029 301.916 203.659L302.08 204.434C303.836 212.797 305.037 221.359 311.377 227.665C311.57 227.721 311.754 227.738 311.936 227.738C312.178 226.594 312.456 225.461 312.803 224.351C313.646 221.641 317.869 222.15 317.75 225.082C330.394 228.935 342.544 234.392 354.637 239.664C364.691 244.05 372.911 251.895 377.595 261.83C390.726 289.005 400.752 317.691 409.493 346.549C410.079 350.449 416.615 364.942 411.342 366.336C412.635 378.275 409.327 390.352 404.216 401.074C401.844 405.102 400.17 410.687 395.405 412.367C390.459 418.581 381.413 420.193 373.883 420.632C384.011 444.476 397.773 505.213 388.466 528.907C389.292 532.794 378.569 534.64 375.699 535.528C378.012 549.349 377.507 563.585 376.51 577.505C367.171 696.235 365.398 815.616 375.224 934.376C375.802 941.778 376.425 949.18 377.084 956.578L377.483 961.014C378.005 966.921 378.45 972.804 378.314 978.758C378.27 980.824 376.557 982.065 374.845 982.172C369.094 985.841 361.369 985.872 354.716 986.756C355.891 993.171 356.55 1003.18 358.606 1008.58C362.888 1007.46 365.647 1011.45 361.38 1013.7C366.632 1016.62 369.335 1022.2 373.539 1026.11C385.089 1021.42 387.239 1028.43 377.801 1030.03C380.367 1032.17 383.091 1034.15 385.907 1036.03L386.108 1036C389.437 1035.5 395.714 1032.74 397.291 1036.39C397.998 1039.03 394.739 1039.87 392.379 1040.19C394.473 1041.51 396.575 1042.82 398.677 1044.13C400.516 1043.32 402.341 1042.31 404.216 1041.67C408.833 1040.64 409.232 1046.63 403.207 1046.97C406.981 1049.76 412.191 1048.15 414.604 1052.08C423.431 1055.65 427.604 1066.41 425.544 1075.02C428.643 1077.77 430.819 1081.91 431.071 1086.06C431.668 1090.51 428.128 1094.69 423.333 1095.86C417.932 1097.66 412.452 1099.3 406.988 1100.84L406.415 1101.04C401.911 1102.57 396.993 1103.95 392.309 1103.68C364.532 1102.02 327.491 1090.61 305.258 1076.42C299.713 1072.25 298.743 1061.94 306.375 1058.64C302.858 1052.27 304.538 1047.63 306.029 1040.69C307.064 1036.16 308.47 1031.51 311.014 1027.32C311.24 1026.95 311.782 1027.06 311.813 1027.43C312.146 1032.17 311.704 1037.01 311.351 1041.79L311.312 1042.32C310.996 1046.72 310.283 1048.34 311.476 1052.5C314.334 1063.13 341.879 1068.44 352.704 1072.82C361.201 1075.45 369.828 1077.81 378.576 1079.89L379.218 1080.02C386.603 1081.65 394.207 1084.11 401.985 1082.83C406.019 1079.9 412.073 1080.72 416.037 1077.37C422.015 1070.91 417.314 1061.45 413.125 1055.58C409.075 1056.87 405.612 1053.39 402.63 1051.55L402.519 1051.49C399.474 1049.56 396.437 1050.91 393.387 1048.99L392.698 1049.12C381.494 1051.25 372.819 1053.69 390.689 1047.3C387.745 1045.46 384.795 1043.6 381.936 1041.65C376.067 1042.36 369.637 1045.44 364.182 1045.72C367.853 1042.3 372.861 1040.41 377.579 1038.53C374.832 1036.44 372.218 1034.21 369.88 1031.75L367.646 1032.31C353.923 1035.72 348.528 1036.7 367.003 1028.39C363.37 1024.36 362.779 1018.38 358.785 1014.59C352.36 1015.93 346.457 1018.76 341.224 1022.41C339.108 1023.92 337.515 1025.82 335.839 1027.71C327.897 1037.93 315.595 1039.5 311.836 1026.25C311.771 1025.98 312.197 1025.81 312.317 1026.04L312.331 1026.07C314.129 1030.14 319.929 1033.44 324.773 1030.91L324.92 1030.84C329.658 1028.37 331.858 1023.33 335.59 1019.9C340.626 1015.35 346.939 1012.3 353.452 1010.01C351.873 1004.24 351.34 993.739 351.52 986.97C340.553 987.488 329.515 986.959 318.741 984.875C320.467 997.459 319.333 1013.84 320.126 1025.06C321.273 1028.82 314.297 1031.18 313.555 1027.43C313.145 1015.28 314.333 997.769 316.182 984.219L315.408 984.031C314.678 983.849 313.91 983.63 313.284 983.276C306.37 984.059 308.256 966.491 307.095 961.55C299.295 852.59 282.865 744.608 268.902 636.367C266.966 635.626 266.622 633.249 266.302 631.263C248.707 643.173 245.2 666.975 237.324 685.426C202.927 780.958 187.558 881.745 163.718 980.12L163.849 980.155C163.943 980.183 163.944 980.197 163.748 980.183L163.703 980.179V980.187C165.176 980.382 166.336 981.928 165.437 983.369C162.754 988.785 155.314 986.868 150.416 986.524C150.892 994.867 149.105 1012.87 150.237 1020.3C156.279 1020.41 156.663 1027.06 157.463 1031.01L157.525 1031.42C158.592 1038.17 162.18 1050.83 159.5 1056.29C163.643 1061.22 160.663 1067.92 156.364 1071.29C151.762 1074.69 146.032 1076.68 140.829 1079.3C116.341 1089.2 92.6492 1108.27 62.6403 1100.93L61.3338 1100.66C40.3015 1096.21 34.2588 1094.24 38.4357 1073.42C36.7204 1069.19 36.7089 1064.56 39.1225 1060.82C43.4266 1055.29 50.6584 1052.27 56.4127 1048.07C66.1593 1041.52 76.5326 1035.8 86.0523 1028.98C85.6984 1028.67 86.1897 1028.56 86.4784 1028.61C93.1968 1023.35 92.5682 1014.25 97.2553 1007.75C98.4275 1004.4 104.346 1003.58 108.244 1004.05C107.027 997.808 112.976 969.403 113.731 989.467L113.731 989.755C113.746 992.852 114.253 1003.19 113.341 1005.22C126.279 1009.17 129.069 1021.6 131.838 1031.64L132.016 1031.69C132.9 1031.91 134.084 1032.1 134.526 1032.97C138.686 1030.32 139.849 1025.12 143.878 1022.32C142.748 1021.43 142.689 1019.74 143.265 1018.44C145.142 1011.56 146.267 994.044 149.102 986.359C135.782 984.363 122.213 983.348 109.205 979.726C107.515 981.387 104.046 980.798 104.182 977.8C108.211 912.487 115.14 847.375 123.875 782.531C131.056 721.834 143.69 661.909 152.49 601.53L152.565 593.243C152.803 568.332 153.468 543.047 162.757 519.594C161.939 519.236 161.129 518.868 160.33 518.482C150.258 522.656 158.193 497.287 158.564 492.715C163.513 466.207 169.344 439.704 173.061 413.03C169.165 411.62 165.566 409.621 162.565 406.715C144.366 391.901 133.817 271.927 140.431 247.803C143.883 232.629 158.514 225.175 172.457 221.745L174.517 221.163C190.09 216.782 205.934 212.812 222.148 211.837C222.725 211.313 224.423 211.463 224.646 211.9C225.661 212.512 226.625 213.706 227.441 214.968C249.946 212.381 243.859 197.67 253.117 195.575ZM306.959 1059.6C303.808 1066.76 307.995 1072.2 315.014 1075.21C339.321 1086.48 366.458 1095.54 394.317 1097.27C402.817 1095.21 411.237 1091.81 419.851 1089.71L420.222 1089.64C423.254 1089.09 424.679 1088.53 424.418 1085.38L424.529 1084.11C424.723 1081.84 424.887 1079.58 424.73 1077.32C422.08 1083.66 414.148 1087.14 407.195 1088.42C396.17 1093.65 383.822 1088.33 372.991 1086.09C355.397 1080.74 317.333 1072.34 306.959 1059.6ZM154.251 1059.75L153.887 1059.86C150.731 1060.84 147.523 1062.04 143.986 1061.15C128.188 1066.51 112.811 1072.58 97.5496 1078.91C81.0828 1086.79 54.5678 1095.96 40.2979 1076.91C42.3495 1086.9 39.4491 1090.32 53.0734 1092.81C74.6913 1099.86 92.0615 1096.25 110 1086.62C123.142 1080.23 137.278 1075.15 150 1068.2L150.171 1068.08C152.674 1066.3 155.693 1063.04 154.251 1059.75ZM121.439 1016.73C117.314 1009.12 106.214 1004.94 97.9587 1007.75C97.1187 1015.08 99.2947 1023.3 94.6348 1029.67C98.7611 1030.4 102.874 1031.23 106.981 1032.09L110.74 1032.89C112.584 1033.29 114.931 1033.98 114.623 1035.94C114.282 1038.1 111.444 1037.44 109.556 1036.9L108.824 1036.68C103.519 1035.12 98.2238 1033.53 92.9869 1031.74C90.2265 1034.78 86.5208 1037.17 82.927 1039.47L84.4175 1039.64C89.6399 1040.22 94.9127 1040.76 100.072 1041.81C102.327 1042.48 101.84 1045.55 99.5337 1045.31C93.3736 1043.7 87.2296 1041.88 80.9638 1040.73C77.901 1042.76 74.8526 1044.79 71.7825 1046.81C77.8208 1047.68 83.8855 1047.76 89.9208 1048.28C93.8284 1048.64 93.8273 1053.98 89.9205 1053.67C82.8703 1053.02 75.8245 1050.94 69.1119 1048.57L65.5742 1050.89C61.4452 1053.6 57.307 1056.31 53.1275 1058.96C50.6127 1060.56 47.3647 1062.09 45.6074 1064.41C40.0578 1073.37 53.9248 1081.93 63.2954 1081.79C77.5273 1081.94 89.3806 1074.55 101.847 1070.13C108.744 1068.42 143.806 1050.87 146.996 1055.49C149.002 1054.53 151.792 1054.18 153.236 1052.59C153.529 1045.25 151.982 1037.56 150.684 1030.16C150.42 1028.87 149.788 1027.32 149.717 1025.99C143.877 1028.15 142.214 1036.3 134.526 1035.6C133.323 1037.53 129.618 1036.63 127.946 1035.1C126.126 1033.44 125.898 1031.1 125.464 1029.02L125.263 1028.06C124.446 1024.23 123.468 1020.3 121.439 1016.73ZM294.504 394.223L293.564 394.46C283.998 396.854 273.991 398.586 264.16 397.943C262.46 404.373 263.346 419.667 256.434 422.111C254.072 423.001 250.518 422.279 249.436 419.868C235.138 419.614 220.739 418.336 206.44 417.485C195.677 416.639 184.509 416.671 174.147 413.405C175.403 419.727 175.835 425.933 175.132 432.399C172.715 459.974 164.759 486.841 162.092 514.298L161.969 515.606L161.892 515.561C161.892 515.613 161.888 515.664 161.884 515.716C162.661 515.941 163.438 516.176 164.211 516.416C164.487 516.276 164.863 516.412 165.062 516.677C222.007 534.39 282.451 542.083 341.801 534.287C352.195 532.99 362.514 531.172 372.76 529.017C372.671 528.101 374.069 527.861 374.314 528.726C376.588 528.33 378.862 527.896 381.124 527.603C380.851 526.834 380.803 526.001 381.083 525.25C385.494 512.015 383.479 496.925 382.088 483.2C380.313 462.126 375.891 441.455 372.319 420.665C355.407 419.897 338.596 417.136 321.603 417.482C319.813 422.122 313.573 426.019 308.687 423.366C305.237 421.503 304.216 417.441 302.831 414.085C300.094 407.448 297.299 400.835 294.504 394.223ZM222.846 212.466C205.087 217.712 186.893 221.459 169.295 227.281C154.67 230.926 144.687 240.102 144.07 255.751C142.864 289.274 146.539 322.967 152.086 356.003L152.376 357.495C155.453 373.416 158.212 389.616 164.025 404.792C172.51 408.737 182.144 409.86 191.428 410.317C204.975 411.006 218.521 411.715 232.056 412.601L242.668 413.289C245.747 413.489 250.029 412.961 252.342 415.356C252.547 415.693 252.964 415.651 253.282 415.861L253.344 415.906C253.681 416.135 254.022 416.693 254.508 416.585C255.3 416.339 255.604 414.761 255.79 414.007L255.807 413.938C256.838 409.906 257.584 405.786 258.536 401.732C260.706 393.753 261.641 385.32 264.938 377.684C260.218 374.671 255.772 371.227 251.959 367.14L247.361 365.521C236.362 361.661 225.24 357.922 213.776 355.609C213.501 358.125 209.89 359.564 208.543 356.931C206.311 350.222 205.897 342.938 204.358 336.023C200.863 315.393 196.712 294.838 194.295 274.044C200.958 292.461 204.41 315.066 209.503 334.971C209.739 334.833 210.066 334.913 210.076 335.239C228.106 328.42 248.125 328.698 265.919 335.934C270.376 337.722 274.903 339.327 279.337 341.171C280.851 342.026 283.867 341.974 284.376 343.843C284.921 342.574 285.653 341.386 286.625 340.584C286.928 339.959 290.375 338.843 290.711 340.08C310.926 342.854 330.581 351.649 351.382 350.164C348.92 341.178 349.211 331.474 349.046 322.194L349.097 321.149C349.525 312.006 349.834 300.691 352.933 293.168C350.95 312.108 352.39 331.08 354.81 349.844C369.481 347.951 362.726 356.34 352.954 356.025C333.235 357.445 315.036 348.724 296.888 342.368C286.975 338.406 285.852 341.762 286.293 351.18C286.303 363.443 291.856 374.635 296.886 385.515L299.146 390.597C302.902 399.052 306.607 407.454 310.256 416.011C326.201 410.724 344.152 413.625 360.67 414.588C373.273 416.171 382.323 415.609 392.986 408.319C396.832 400.97 401.899 394.002 403.881 385.713C406.179 378.117 406.944 370.16 407.615 362.288L407.011 360.085C399.24 331.822 390.64 303.698 378.889 276.778L378.253 275.295C374.269 265.972 370.222 256.189 362.162 249.659C348.635 239.671 331.905 235.241 317.685 226.353L317.595 227.003C316.151 237.198 313.659 247.767 307.134 255.969C295.077 270.774 272.313 271.19 256.884 261.575C240.834 252.701 231.204 236.177 226.519 218.906L226.464 218.716C226.026 217.177 224.805 212.516 222.846 212.466ZM266.435 378.618C266.425 384.047 265.354 389.398 264.629 394.758C272.973 393.111 281.293 391.962 289.5 389.736C281.505 386.716 273.737 383.077 266.435 378.618ZM246.343 334.83C234.175 332.448 221.718 333.873 209.687 335.792C210.994 341.869 212.487 347.892 213.736 353.977C218.044 353.78 258.916 361.018 254.303 366.828C260.336 370.054 266.051 373.847 272.057 377.143C278.097 380.458 284.385 383.307 290.873 385.622L290.53 384.86C284.947 372.387 279.731 358.35 284.033 344.718C278.248 347.04 270.351 342.052 264.746 340.186C258.797 337.798 252.669 335.915 246.343 334.83ZM158.746 286.53C158.787 284.255 165.815 290.78 166.733 291.457L167.287 291.959C174.032 298.08 180.695 304.813 184.453 313.212C184.727 321.467 172.426 301.471 170.721 300.249C166.999 295.46 162.466 291.3 158.746 286.53ZM353.239 305.96C351.337 306.586 356.527 300.136 358.551 300.607C359.356 300.489 360.057 301.657 359.163 302.058L358.719 302.254C356.642 303.155 354.519 303.924 353.239 305.96Z" fill="black"/>
<path fill-rule="evenodd" clip-rule="evenodd" d="M328.969 118.712C328.143 108.028 329.422 96.8291 325.305 86.6736C318.125 69.8237 297.991 64.2056 282.382 57.7906C276.129 55.9422 255.088 55.6838 247.767 53.2375C231.196 47.7007 227.237 41.1038 214.07 51.6459C211.847 53.4468 210.457 55.4041 209.442 58.0783L209.484 58.0898C209.194 59.2047 209.505 60.3171 210.158 61.1668C204.449 67.0046 202.06 75.7567 204.989 83.5278C214.548 103.75 214.098 114.684 211.018 136.424C206.996 156.72 216.187 164.134 231.409 175.177C230.789 176.379 230.66 177.976 231.468 179.037C249.07 203.781 282.257 215.595 310.692 203.036C322.234 197.897 327.387 185.6 330.328 174.504C333.753 162.081 334.806 148.989 332.017 136.334C330.892 130.481 329.427 124.67 328.969 118.712Z" fill="white"/>
<path fill-rule="evenodd" clip-rule="evenodd" d="M227.441 0.337485C229.577 0.0165404 231.191 1.34261 231.958 3.21168L231.999 3.31232C232.245 3.9483 232.52 4.5669 232.815 5.17507C238.161 2.55124 245.79 3.22544 249.174 8.53914C251.588 12.3341 250.115 16.8381 249.205 20.8625L248.607 23.5141C249.762 24.2494 250.633 25.5661 250.592 26.9296L250.588 27.0346L250.344 30.7323C251.116 29.9503 251.821 29.0989 252.45 28.1918C252.884 27.396 253.353 26.6141 253.856 25.8565C256.82 21.3977 263.472 25.2726 261.027 30.0476C260.558 30.9686 260.03 31.8409 259.463 32.6819C258.824 33.9226 258.3 35.198 257.897 36.5082C259.053 37.0121 259.943 38.1311 260.037 39.8201C260.255 43.7646 258.185 47.0556 254.892 49.1234C253.922 49.7316 252.922 49.8498 252.015 49.6239C251.855 49.8393 251.696 50.0548 251.543 50.2738C252.856 51.3407 254.041 52.557 255.058 53.9054C258.122 53.4467 261.204 53.2312 264.285 53.2243C268.051 51.3789 272.56 51.4171 276.607 52.1087C279.213 52.5535 281.714 53.4189 284.278 54.041C286.98 54.6943 289.725 54.7186 292.459 55.1635C295.905 55.723 298.927 57.3147 300.827 59.8551C302.915 59.9176 305.111 60.7726 306.931 61.9333C311.169 64.6371 315.383 67.3791 319.611 70.1002C321.233 71.1449 321.84 72.8127 321.542 74.6728L321.521 74.7918L321.379 75.5634L321.714 76.0382C323.007 77.866 324.415 79.7805 325.252 81.798C326.802 84.0326 328.202 86.3749 329.442 88.7903C331.113 92.0362 332.492 95.4767 333.427 99.0076C333.659 99.9007 333.892 100.801 334.045 101.711C334.264 102.997 333.927 103.995 333.743 105.228C333.513 106.792 333.43 108.377 333.187 109.944C333.024 110.983 332.141 111.494 331.217 111.522C331.565 114.167 331.815 116.829 332.054 119.47C332.391 123.244 332.621 127.029 332.819 130.813C333.84 132.297 335.928 133.472 337.435 133.879C339.523 134.438 341.712 133.83 343.685 133.117C344.925 132.669 345.943 134.23 345.339 135.272C343.438 138.546 339.374 138.532 336.296 137.083C334.993 136.471 333.85 135.585 333.003 134.431C333.055 135.529 333.11 136.627 333.166 137.729L333.218 138.727C333.844 150.38 335.195 162.434 333.006 173.973C329.216 193.959 312.683 209.177 292.486 210.359C281.888 210.979 273.063 207.848 268.674 206.101C264.285 204.354 265.991 200.792 269.038 201.81C274.286 203.564 283.928 206.177 292.556 205.049C312.892 202.389 330.137 192.221 328.365 148.426C328.114 142.215 327.34 136.002 327.174 129.792C327.014 123.72 327.073 117.645 326.805 111.578L326.716 109.507C326.612 107.088 326.5 104.658 326.319 102.236C326.1 101.298 325.919 100.346 325.652 99.4246C324.926 96.9189 323.978 94.4828 322.8 92.1578C322.539 92.3559 322.248 92.4984 321.931 92.554C319.531 92.9849 317.28 92.8633 315.032 91.8624C313.983 91.4002 313.059 90.7851 312.197 90.024C311.788 89.666 311.513 89.3185 311.298 88.9571C310.21 88.9745 309.123 88.6478 308.442 87.8658C307.666 86.9746 307.536 86.0541 307.841 85.2019L307.872 85.1169L307.796 85.0891C306.879 87.4627 305.052 89.5513 303.047 90.9623C299.879 93.2004 295.915 93.8468 292.115 93.9059C287.918 93.9684 283.492 93.322 279.352 92.6617C278.257 92.488 277.17 92.2899 276.103 92.0223C276.062 92.064 276.02 92.1126 275.975 92.1543C272.421 95.5566 267.422 96.4324 262.913 94.4897C260.308 93.3672 258.122 91.5601 256.191 89.4888C256.163 90.5731 256.108 91.6574 256.014 92.7312L255.975 93.1577C255.783 95.1577 255.413 97.2792 253.902 98.7226C251.459 101.061 247.916 100.123 245.099 98.601C245.102 98.674 245.102 98.7504 245.102 98.8269C245.863 101.412 246.627 104.002 247.391 106.591L247.556 107.142C248.112 108.981 248.721 110.821 248.889 112.745C249.208 116.422 246.763 120.054 242.677 118.82C240.534 118.175 238.818 116.373 237.171 114.929L236.133 114.031C238.818 122.813 240.68 131.908 240.854 141.072C240.864 141.569 240.437 141.945 239.964 141.962C238.86 142.007 237.671 141.788 236.56 141.347C236.497 141.343 236.435 141.34 236.369 141.33C234.472 141.055 232.711 140.37 231.158 139.359C231.516 140.495 231.675 141.715 231.582 142.991C231.557 143.3 231.075 143.408 231.005 143.067C230.109 138.657 224.95 135.324 220.503 136.169C215.73 137.076 212.215 141.184 211.353 145.858C210.429 150.88 212.197 156.687 215.473 160.562C216.981 162.348 218.964 163.839 221.32 164.214C222.397 164.385 223.515 164.325 224.561 164.02C225.006 163.888 225.422 163.703 225.846 163.53C226.465 163.279 227.187 163.241 227.771 162.977C229.094 162.383 230.425 163.603 229.754 164.961C229.171 166.146 228.646 166.946 227.677 167.557C228.462 168.517 229.174 169.851 229.438 170.209C230.786 172.03 232.155 173.75 233.69 175.415C235.254 177.104 236.959 178.647 238.762 180.075L239.52 180.674C241.257 182.052 242.769 183.329 243.994 185.306C244.96 186.866 243.709 188.983 241.899 188.958C236.237 188.878 232.12 183.902 229.188 179.554C228.771 178.932 228.379 178.275 228.014 177.601C227.882 177.813 227.736 178.011 227.573 178.192L227.896 179.061C228.855 181.618 224.724 183.29 223.526 180.903C222.654 179.172 221.643 177.525 220.517 175.968C219.854 175.874 219.204 175.471 218.843 174.949C217.929 173.625 216.904 172.287 216.039 170.876C215.56 170.421 215.067 169.983 214.563 169.556C214.417 169.684 214.268 169.813 214.125 169.948C213.493 171.391 212.711 172.708 211.742 173.948L211.534 174.213C209.678 176.554 207.259 178.95 204.266 179.523C203.353 179.697 202.474 178.56 203.283 177.834C205.378 175.95 207.855 174.668 209.786 172.565C210.738 171.529 211.612 170.389 212.363 169.193L212.534 168.916C212.659 168.711 212.788 168.506 212.92 168.298C212.048 167.703 211.176 167.106 210.304 166.508C207.904 168.559 204.778 169.498 202.123 171.197L201.859 171.37C199.458 172.975 196.929 169.424 198.854 167.474C200.975 165.333 202.746 162.78 204.626 160.4C203.742 158.771 203.324 156.846 203.167 154.899C203.105 154.349 203.057 153.797 203.009 153.246C201.661 153.267 200.306 152.805 199.16 152.009L198.725 151.7C197.332 152.145 195.87 152.36 194.47 152.322C191.177 152.225 189.829 148.461 191.889 146.08C193.99 143.648 197.669 143.116 200.584 144.297C200.678 144.249 200.775 144.197 200.869 144.144C200.73 143.505 200.761 142.925 200.919 142.416L200.873 142.105C200.232 141.121 199.811 139.998 199.651 138.811C199.524 137.871 199.55 136.939 199.768 136.011C199.84 135.702 199.99 135.382 200.105 135.06C199.868 134.461 199.729 133.843 199.686 133.221C199.62 133.142 199.554 133.061 199.491 132.973C198.045 130.942 198.337 128.494 199.713 126.85C199.72 126.746 199.729 126.641 199.744 126.537C199.663 126.356 199.589 126.173 199.522 125.988C198.177 124.63 197.19 122.997 197.374 120.974C197.482 119.783 197.971 118.711 198.711 117.91C198.58 117.522 198.567 117.072 198.726 116.696C197.545 113.552 197.694 109.766 198.545 106.25C198.357 105.715 198.26 105.134 198.281 104.519C198.378 101.909 200.636 99.5115 203.311 99.5428C203.633 99.5455 203.935 99.5876 204.224 99.6491L204.228 99.5869C204.331 98.8036 204.546 98.0797 204.86 97.4302C204.706 97.3742 204.563 97.2939 204.437 97.1872C202.723 98.1019 200.909 98.8011 199.008 99.2776C197.61 99.6279 196.177 98.038 197.046 96.725C197.45 96.1158 197.895 95.5688 198.374 95.069C197.693 95.0729 197.001 95.1191 196.301 95.2091C195.043 95.3724 193.64 94.514 192.823 93.3533C191.809 94.3403 190.791 95.3238 189.773 96.3073C187.195 98.806 183.301 96.9676 182.895 93.673C182.127 93.468 181.411 93.1205 180.783 92.6235C176.718 94.3889 172.344 95.3585 167.873 95.5427C164.664 95.6748 162.788 91.9354 164.288 89.2942C165.296 87.5218 166.546 85.9301 167.988 84.5469C165.751 85.2316 163.441 85.7251 161.082 86.0413C159.807 86.2116 158.004 85.1551 157.493 83.984C155.541 79.48 155.708 74.7849 157.955 70.4026C158.042 70.2288 158.14 70.062 158.233 69.8952C158.466 69.3148 158.72 68.7414 158.994 68.1784C156.229 65.2939 155.989 61.0054 157.48 57.4155C156.882 56.4459 156.653 55.2782 157.059 54.2217C158.216 51.1808 159.883 48.3728 161.989 45.9609C161.787 45.5717 161.61 45.1581 161.461 44.7133C160.276 41.1164 161.648 36.7758 164.417 34.2701C166.157 32.6923 168.158 31.747 170.295 31.1423C171.195 29.5507 172.351 28.1154 173.699 26.906C173.751 26.7913 173.803 26.6766 173.863 26.5619C175.961 22.6071 179.782 20.4871 183.878 19.9971C184.038 18.4506 185.08 16.9736 186.594 16.4941C187.011 15.1561 187.633 13.8772 188.488 12.7164C189.832 10.8884 192.066 10.0266 194.171 11.2255C195.324 11.8824 196.429 12.6365 197.464 13.4706C197.929 13.2524 198.456 13.1113 199.051 13.0662L199.201 13.057L202.627 12.8832C204.061 12.2473 205.493 11.58 206.927 10.9301C207.789 10.2177 208.751 9.62343 209.8 9.18207C210.988 8.6851 212.204 8.40361 213.424 8.30977C214.414 7.98657 215.411 7.7016 216.425 7.47918C218.808 6.95789 221.302 6.66597 223.776 6.69029C223.826 6.04985 223.852 5.40175 223.847 4.74598L223.842 4.41746C223.786 2.31492 225.464 0.636359 227.441 0.337485ZM225.04 168.558C224.7 168.631 224.356 168.69 224.012 168.732C224.116 168.989 224.22 169.246 224.321 169.504C224.599 169.66 224.881 169.809 225.162 169.948C225.079 169.476 225.03 169 225.04 168.558ZM207.192 163.253L206.961 163.678C206.924 163.748 206.887 163.816 206.851 163.884C207.341 163.846 207.834 163.856 208.32 163.912L208.319 163.86C208.256 163.839 208.194 163.819 208.134 163.79C207.799 163.629 207.487 163.448 207.192 163.253ZM216.838 143.842C219.912 144.021 222.516 144.493 225.311 145.838L225.551 145.955C228.021 147.182 232.106 149.448 231.762 152.697C231.665 153.622 230.995 154.595 229.939 154.522C227.045 154.324 225.391 151.404 223.432 149.583C221.455 147.748 219.027 145.861 216.633 144.6C216.295 144.422 216.428 143.86 216.797 143.842L216.838 143.842ZM202.901 101.03C202.165 101.055 202.411 101.77 202.79 101.173C202.821 101.124 202.859 101.075 202.901 101.03ZM242.655 53.2375C235.68 53.421 228.66 57.5409 223.435 61.7053C218.89 65.3283 214.965 69.6377 211.489 74.2824C210.595 76.5955 209.827 78.957 209.178 81.3358C208.751 82.9066 208.484 84.4948 208.126 86.0796L208.015 86.5654C207.734 87.0909 207.525 87.6563 207.373 88.2405C208.006 88.8758 208.828 89.3307 209.732 89.5465C210.024 89.616 210.266 89.7665 210.457 89.966C211.185 88.7503 211.822 87.4672 212.192 86.107L212.206 86.0441C213.605 83.7508 215.125 81.5287 216.755 79.3827C221.25 73.4573 226.201 68.0568 232.151 63.5632C236.664 60.1575 241.708 57.4884 247.072 55.7543C245.759 54.6947 244.268 53.8564 242.655 53.2375Z" fill="black"/>
<path fill-rule="evenodd" clip-rule="evenodd" d="M297.038 182.369C294.703 181.416 292.619 179.826 291.096 177.796C290.566 177.09 290.429 176.344 290.54 175.662C290.665 174.895 291.118 174.201 291.737 173.734C292.357 173.267 293.133 173.036 293.883 173.154C294.535 173.256 295.184 173.613 295.697 174.353L295.804 174.502C296.71 175.727 297.89 176.733 299.235 177.381C300.531 178.006 301.981 178.298 303.481 178.128C306.337 177.805 308.307 176.259 310.4 174.161C310.659 173.896 310.919 173.622 311.179 173.345C311.344 173.093 311.573 172.931 311.827 172.846C312.108 172.752 312.427 172.757 312.719 172.859C313.001 172.957 313.253 173.144 313.421 173.392C313.582 173.627 313.673 173.919 313.643 174.253C313.452 176.429 312.315 178.37 310.7 179.894C308.907 181.587 306.529 182.758 304.291 183.169C301.826 183.622 299.313 183.298 297.038 182.369V182.369ZM305.455 148.812C308.078 150.407 312.075 154.127 309.253 158.081C305.931 161.568 301.148 157.57 298.792 155.762C296.606 154.361 294.151 157.965 296.178 159.601C313.209 172.215 320.12 149.229 306.781 146.936C305.313 146.684 304.767 148.319 305.455 148.812ZM274.936 134.139C275.226 130.54 280.705 129.723 281.25 133.284C281.738 136.474 281.164 139.405 279.727 142.278C278.355 145.022 274.905 143.741 274.644 141.243C274.294 137.893 274.756 136.378 274.936 134.139ZM316.645 132.546C317.409 131.545 318.512 130.862 319.833 131.248C323.962 132.455 322.745 138.319 321.295 141.173C320.507 142.723 317.961 143.116 316.81 141.751C314.934 139.525 314.035 135.081 316.42 132.889C316.485 132.775 316.557 132.661 316.645 132.546ZM279.669 118.391L280.321 118.276C282.339 117.927 284.847 117.592 286.275 119.215C287.032 120.075 287.292 121.674 286.275 122.498C284.485 123.947 282.506 123.386 280.361 123.508C278.594 123.61 276.895 123.902 275.192 124.389C271.457 125.457 268.414 127.407 265.224 129.548C264.805 129.828 264.378 129.293 264.578 128.901C266.419 125.293 269.988 122.329 273.562 120.522C275.47 119.558 277.558 118.758 279.669 118.391ZM312.881 116.774L313.38 116.876C318.813 118.012 325.871 120.281 328.443 125.619C328.541 126.374 328.437 126.536 328.353 126.642L328.325 126.677C328.256 126.767 328.2 126.891 327.873 126.994C327.783 126.972 327.691 126.95 327.598 126.925C326.419 126.616 325.486 126.19 324.583 125.748L323.604 125.266C322.468 124.708 321.321 124.171 320.107 123.775C317.514 122.929 314.848 122.333 312.14 122.015C311.553 121.946 310.988 121.748 310.542 121.408C310.119 121.086 309.796 120.64 309.649 120.047C309.458 119.279 309.512 118.698 309.924 118.005C310.234 117.485 310.677 117.124 311.185 116.917C311.704 116.706 312.294 116.657 312.881 116.774Z" fill="black"/>
<path fill-rule="evenodd" clip-rule="evenodd" d="M274.505 184.547C277.318 177.955 283.456 173.111 290.524 171.34C295.714 170.042 301.161 170.084 306.451 170.599C309.223 170.866 312.197 171.086 314.809 172.116C317.04 172.996 318.858 174.658 320.225 176.611C321.852 178.924 322.958 181.571 323.736 184.285C323.846 184.671 323.95 185.059 324.046 185.45C323.708 187.497 322.991 189.24 321.095 190.527C319.246 191.784 317.038 192.298 314.838 192.481C314.622 192.377 314.414 192.271 314.223 192.162C310.794 190.198 308.381 185.558 304.053 186.186C300.191 186.747 297.649 191.608 295.352 194.458C287.98 195.318 280.613 193.102 274.615 188.884C274.31 187.441 274.292 185.985 274.505 184.547M329.057 179.546C328.467 177.891 327.725 176.287 326.844 174.777C323.933 169.781 319.465 165.801 314.16 163.526C301.612 158.151 285.375 161.94 275.242 170.755C271.78 173.769 268.28 178.197 267.221 182.96C266.905 183.023 266.607 183.188 266.361 183.419C259.04 178.808 251.5 174.371 245.6 167.979C241.315 163.334 238.335 157.838 236.51 151.798C236.361 151.301 235.56 151.374 235.584 151.924C235.591 152.052 235.598 152.181 235.605 152.309C235.528 152.073 235.168 152.195 235.14 152.424C234.158 159.761 232.93 167.54 234.061 174.916C234.737 179.317 236.736 182.539 239.407 186.018C242.269 189.747 245.51 193.215 248.823 196.542C250.925 198.653 253.121 201.088 255.695 202.637C258.689 204.435 262.086 205.803 265.281 207.191C268.532 208.607 271.831 209.915 275.193 211.049C281.913 213.324 288.859 214.897 295.926 215.585C301.584 216.135 308.051 216.734 313.473 214.604C317.63 212.973 320.984 210.023 323.645 206.474C326.542 202.609 328.832 198.206 330.098 193.563C331.414 188.741 329.334 180.324 329.057 179.546" fill="black"/>
<path fill-rule="evenodd" clip-rule="evenodd" d="M339.657 139.528C336.372 161.746 313.442 164.204 309.368 142.146C310.022 141.86 310.492 141.296 310.394 140.202C310.371 135.395 311.863 130.315 316.199 127.641C320.68 124.883 325.924 124.609 331.11 124.679C341.006 124.443 340.797 132.715 339.657 139.528M305.778 129.865C302.673 129.734 298.744 129.844 295.961 131.736C295.197 129.676 293.209 127.477 291.201 126.301C298.665 126.52 306.347 125.785 313.866 125.215C312.066 126.442 310.392 128.285 309.303 130.416C308.294 129.877 306.847 129.928 305.778 129.865M292.089 141.884C283.478 171.526 261.982 158.606 259.639 154.807C255.412 148.521 254.616 133.239 258.298 129.153C263.569 125.459 271.031 126.41 277.257 126.319C288.696 126.473 296.82 129.895 292.089 141.884M349.825 128.25C347.485 127.944 344.985 127.882 342.809 128.913C342.14 126.066 340.037 123.686 337.663 122.638C337.376 122.278 337.419 122.084 336.437 122.138C330.409 120.327 323.665 121.285 317.872 123.143C308.724 123.913 299.127 124.521 289.902 125.582C281.26 121.702 255.182 121.133 253.561 130.698C251.522 130.393 248.051 128.789 246.338 130.965C233.772 128.835 220.789 131.795 208.169 133.114C204.992 133.699 203.356 140.003 206.962 139.917C208.989 139.367 206.899 135.991 209.629 135.737C221.805 134.408 233.715 132.521 246.016 132.3C245.588 134.424 254.152 134.562 254.278 133.322C254.296 133.331 254.316 133.337 254.334 133.346C252.218 141.232 254.128 152.582 257.952 157.472C263.311 163.875 276.763 165.712 282.728 161.592C290.422 157.79 298.427 138.702 296.178 132.361C300.259 131.067 304.293 131.456 308.528 132.114C307.558 134.853 305.885 141.595 308.293 142.179C307.851 155.565 320.032 163.916 331.262 158.426C340.981 153.863 344.381 139.421 343.191 130.655C344.401 132.993 354.561 130.448 349.825 128.25" fill="black"/>
</svg>
